Coordinates
version=1
nRows=8
nColumns=40
inDegrees=yes

Units are S.I. units (second, meters, Newtons, ...)
If the header above contains a line with 'inDegrees', this indicates whether rotational values are in degrees (yes) or radians (no).

endheader
time	pelvis_tilt	pelvis_list	pelvis_rotation	pelvis_tx	pelvis_ty	pelvis_tz	hip_flexion_r	hip_adduction_r	hip_rotation_r	knee_angle_r	knee_angle_r_beta	ankle_angle_r	subtalar_angle_r	mtp_angle_r	hip_flexion_l	hip_adduction_l	hip_rotation_l	knee_angle_l	knee_angle_l_beta	ankle_angle_l	subtalar_angle_l	mtp_angle_l	lumbar_extension	lumbar_bending	lumbar_rotation	arm_flex_r	arm_add_r	arm_rot_r	elbow_flex_r	pro_sup_r	wrist_flex_r	wrist_dev_r	arm_flex_l	arm_add_l	arm_rot_l	elbow_flex_l	pro_sup_l	wrist_flex_l	wrist_dev_l
     15.60833333	     12.88733997	     -7.23281239	     -0.20271147	     -0.40393990	      1.20197604	      0.01917206	     48.76796823	     -0.68465412	     -2.92337824	    100.53957201	      1.75474656	      1.79757400	    -19.80097230	      0.00000000	     32.78593083	    -10.21004171	      9.31706232	     49.89826506	      0.87088902	      5.98462099	    -27.00964652	      0.00000000	    -73.68760418	      6.08815224	     11.35410309	     79.63912027	     -4.40821982	      0.17900549	     43.77325729	     16.00847274	      0.00000000	      0.00000000	     89.84923006	      0.32206568	     29.16533628	     19.55280752	     83.79322375	      0.00000000	      0.00000000
     15.61666667	     12.76936026	     -7.52510113	     -0.07327839	     -0.40398487	      1.20187165	      0.01912238	     49.95112586	     -0.58635951	     -3.13988364	    101.52930709	      1.77202070	      2.19641683	    -19.76346356	      0.00000000	     31.79286796	    -10.53740587	      9.39214757	     48.49300349	      0.84636258	      5.27849872	    -26.86462143	      0.00000000	    -73.61948955	      6.39519771	     11.62815246	     79.65526277	     -4.41716029	      0.24908967	     43.78771554	     15.94321672	      0.00000000	      0.00000000	     89.84843490	      0.32274853	     29.17099396	     19.46732652	     83.82425106	      0.00000000	      0.00000000
     15.62500000	     12.65122138	     -7.82196168	     -0.01980145	     -0.40412158	      1.20185615	      0.01920860	     51.24395325	     -0.53888855	     -3.37550717	    102.54618973	      1.78976865	      2.55536717	    -19.68741372	      0.00000000	     30.83811548	    -10.93023251	      9.36401915	     47.19217143	      0.82365877	      4.49597802	    -26.76251151	      0.00000000	    -73.56872198	      6.62422873	     11.92380513	     79.68537457	     -4.43351934	      0.33615777	     43.81112788	     15.88198202	      0.00000000	      0.00000000	     89.84604506	      0.30526690	     29.15600109	     19.45293834	     83.83111069	      0.00000000	      0.00000000
     15.63333333	     12.56447498	     -8.03518183	      0.06736606	     -0.40407342	      1.20168037	      0.01923819	     52.37391783	     -0.49762776	     -3.51592925	    103.42485086	      1.80510418	      3.08540205	    -19.67361165	      0.00000000	     29.90046218	    -11.21657287	      9.34290564	     46.03936872	      0.80353857	      3.76184090	    -26.66842167	      0.00000000	    -73.50841073	      6.85057444	     12.13069753	     79.67615182	     -4.44404630	      0.42267146	     43.83735091	     15.83721320	      0.00000000	      0.00000000	     89.84385494	      0.30574240	     29.16441616	     19.36456080	     83.81122334	      0.00000000	      0.00000000
     15.64166667	     12.49311088	     -8.24780193	      0.12458039	     -0.40413850	      1.20169402	      0.01941735	     53.58164425	     -0.59438628	     -3.71188756	    104.27115983	      1.81987505	      3.49399393	    -19.47008496	      0.00000000	     28.97407225	    -11.53084967	      9.25401230	     44.93946721	      0.78434167	      2.97326481	    -26.58855510	      0.00000000	    -73.48644441	      7.02806307	     12.34304477	     79.70811134	     -4.45602125	      0.50830111	     43.86455335	     15.79367748	      0.00000000	      0.00000000	     89.84096601	      0.29904292	     29.15509903	     19.34227798	     83.76848213	      0.00000000	      0.00000000
     15.65000000	     12.37860071	     -8.47094298	      0.11112491	     -0.40432834	      1.20171606	      0.01942913	     54.83923335	     -0.44238722	     -3.75784869	    105.11058313	      1.83452575	      4.10857799	    -19.35868828	      0.00000000	     28.15397912	    -11.82633777	      9.23832112	     43.97627311	      0.76753076	      2.20988887	    -26.52281022	      0.00000000	    -73.44553865	      7.18169160	     12.57460866	     79.76629644	     -4.44392441	      0.60642972	     43.84641994	     15.73378889	      0.00000000	      0.00000000	     89.84043651	      0.27516805	     29.10786803	     19.34805601	     83.77201748	      0.00000000	      0.00000000
     15.65833333	     12.34283856	     -8.29527909	     -0.01795391	     -0.40428425	      1.20161168	      0.01943173	     55.96729624	     -0.69568278	     -3.47873002	    105.92381988	      1.84871941	      5.10701397	    -18.39294124	      0.00000000	     27.17876650	    -11.74346341	      8.95393107	     43.11284363	      0.75246107	      0.98940052	    -27.37660129	      0.00000000	    -73.40041092	      7.05471114	     12.46737072	     79.77783921	     -4.53962800	      0.90973076	     43.87396425	     15.48264040	      0.00000000	      0.00000000	     89.83737293	      0.30194258	     29.04451006	     19.30253143	     83.58667240	      0.00000000	      0.00000000
     15.66666667	     12.27704382	     -8.50663752	      0.08119915	     -0.40434069	      1.20157097	      0.01948336	     57.03239933	     -0.73775608	     -3.71802751	    106.50352186	      1.85883712	      5.61361531	    -18.49495838	      0.00000000	     26.42046525	    -11.99161768	      9.01120188	     42.40425461	      0.74009386	      0.51237888	    -27.25668382	      0.00000000	    -73.37200065	      7.27069046	     12.63925545	     79.79421457	     -4.50048440	      0.93307146	     43.85023478	     15.42326464	      0.00000000	      0.00000000	     89.83719787	      0.28339953	     29.01365244	     19.25868184	     83.61392909	      0.00000000	      0.00000000
